<?xml version="1.0" encoding="utf-8"?>
<!-- Generator: Adobe Illustrator 27.5.0, SVG Export Plug-In . SVG Version: 6.00 Build 0)  -->
<svg version="1.1" xmlns="http://www.w3.org/2000/svg" xmlns:xlink="http://www.w3.org/1999/xlink" x="0px" y="0px"
	 viewBox="0 0 750 500" style="enable-background:new 0 0 750 500;" xml:space="preserve">
<g id="BACKGROUND">
	<rect x="-0.001" style="fill:#FEF7E2;" width="750" height="500"/>
</g>
<g id="OBJECTS">
	<g>
		<path style="fill:#E0DC9A;" d="M0,391.148V232.549c0,0,424.447-37.9,750,29.906c0,99.762,0,216.484,0,216.484L0,391.148z"/>
		<polygon style="fill:#E0DC9A;" points="168.006,272.955 154.44,272.955 144.44,0 158.005,0 		"/>
		<polygon style="fill:#E0DC9A;" points="244.458,272.955 237.893,272.955 230.892,0 240.457,0 		"/>
		<polygon style="fill:#E0DC9A;" points="447.364,272.955 433.799,272.955 423.798,0 437.363,0 		"/>
		<polygon style="fill:#E0DC9A;" points="490.249,272.955 463.105,272.955 453.104,0 466.669,0 		"/>
		<polygon style="fill:#E0DC9A;" points="588.08,272.955 574.515,272.955 572.515,0 578.08,0 		"/>
		<polygon style="fill:#E0DC9A;" points="691.693,272.955 674.128,272.955 656.126,0 661.691,0 		"/>
		<polygon style="fill:#E0DC9A;" points="320.909,272.955 297.343,272.955 297.343,0 310.909,0 		"/>
		<path style="opacity:0.2;fill:#1E3639;" d="M21.731,285.673c0,0,211.754-65.824,441.374-12.718
			c229.62,53.106-302.754,176.519-302.754,176.519L21.731,285.673z"/>
	</g>
	<g>
		<path style="fill:#94A175;" d="M472.355,283.74c0,0-14.223-14.765-9.568-21.451c4.655-6.686,12.079,8.283,12.079,8.283
			s-6.418-19.637,0.528-20.562c6.946-0.925,6.365,12.627,6.365,12.627s1.288-18.439,16.054-15.882
			c14.767,2.558,14.359,47.951,14.359,47.951"/>
		<path style="fill:#94A175;" d="M287.834,293.591c0,0,13.004-25.562,28.897-19.844c-0.794-20.729,39.696-37.72,50.514-2.405
			c10.818,35.315-15.884,62.374-15.884,62.374"/>
		<path style="fill:#94A175;" d="M88.809,324.989c0,0-2.873-42.264,50.192-48.302c53.064-6.038,76.714,62.189,76.714,62.189"/>
		<polygon style="fill:#728E76;" points="281.019,321.31 260.609,314.87 258.739,246.51 258.499,237.75 257.489,200.5 
			257.329,194.91 256.729,172.77 256.409,161 255.889,142.21 255.649,133.16 254.239,81.72 254.019,73.54 252.009,0 257.669,0 
			262.959,72.85 263.519,80.44 267.219,131.45 267.839,139.9 269.429,161.84 270.159,171.83 271.039,184 271.809,194.62 
			275.119,240.1 275.729,248.58 		"/>
		<polygon style="fill:#728E76;" points="199.429,321.31 169.019,314.87 171.869,235.97 172.249,225.53 174.439,164.92 
			174.779,155.69 178.379,56.11 178.769,45.45 180.409,0 196.409,0 196.829,44.29 196.929,55.07 197.889,157.19 197.989,167.97 
			198.559,229.26 198.659,239.22 		"/>
		<polygon style="fill:#728E76;" points="413.189,321.31 392.179,314.87 394.359,254.68 394.659,246.39 395.029,236.23 
			395.299,228.83 396.499,195.64 396.999,181.7 399.399,115.57 399.729,106.25 400.989,71.4 401.229,64.89 403.579,0 410.169,0 
			410.749,61.43 410.829,69.83 411.149,104.19 411.239,113.49 411.839,177.25 412.019,196.75 412.309,227.28 412.369,234.24 
			412.479,245.56 412.549,252.71 		"/>
		<polygon style="fill:#728E76;" points="629.549,321.31 598.549,314.87 596.639,245 596.019,222.27 594.559,168.87 594.039,149.81 
			593.019,112.44 592.769,103.23 591.959,73.75 591.709,64.26 589.949,0 606.529,0 610.939,61.5 611.629,71.19 613.839,102.01 
			614.319,108.67 617.339,150.89 618.749,170.58 622.399,221.55 623.819,241.29 		"/>
		<polygon style="fill:#728E76;" points="686.429,321.31 645.419,314.87 638.549,239.28 636.909,221.15 632.399,171.54 
			630.579,151.5 629.259,136.96 628.389,127.33 623.149,69.69 622.259,59.88 620.669,42.42 620.549,41.07 616.819,0 637.399,0 
			641.739,28.47 643.099,37.38 646.019,56.47 647.549,66.51 656.439,124.77 658.089,135.6 660.729,152.9 663.909,173.76 
			670.999,220.21 673.189,234.55 		"/>
		<path style="fill:#94A175;" d="M0,375.186v-60.321c0,0,494.448-59.344,750-41.91c0,87.267-0.001,143.688-0.001,143.688L0,375.186z
			"/>
		<polygon style="opacity:0.2;fill:#1E3639;" points="658.089,135.6 629.259,136.96 628.389,127.33 656.439,124.77 		"/>
		<polygon style="opacity:0.2;fill:#1E3639;" points="643.099,37.38 620.669,42.42 620.549,41.07 641.739,28.47 		"/>
		<polygon style="opacity:0.2;fill:#1E3639;" points="611.302,66.596 611.629,71.19 591.959,73.75 591.709,64.26 		"/>
		<polygon style="opacity:0.2;fill:#1E3639;" points="647.549,66.51 623.149,69.69 622.259,59.88 646.019,56.47 		"/>
		<polygon style="opacity:0.2;fill:#1E3639;" points="617.339,150.89 618.749,170.58 594.559,168.87 594.241,157.202 		"/>
		<polygon style="opacity:0.2;fill:#1E3639;" points="663.909,173.76 632.399,171.54 630.579,151.5 660.729,152.9 		"/>
		<polygon style="opacity:0.2;fill:#1E3639;" points="622.399,221.55 623.819,241.29 596.639,245 596.019,222.27 		"/>
		<polygon style="opacity:0.2;fill:#1E3639;" points="673.189,234.55 638.549,239.28 636.909,221.15 670.999,220.21 		"/>
		<polygon style="opacity:0.2;fill:#1E3639;" points="614.319,108.67 593.019,112.44 592.769,103.23 613.839,102.01 		"/>
		<polygon style="opacity:0.2;fill:#1E3639;" points="410.829,69.83 400.989,71.4 401.229,64.89 410.749,61.43 		"/>
		<polygon style="opacity:0.2;fill:#1E3639;" points="411.239,113.49 399.399,115.57 399.729,106.25 411.149,104.19 		"/>
		<path style="opacity:0.2;fill:#1E3639;" d="M412.019,196.75l-15.52-1.11l0.5-13.94c4.87-1.44,9.89-2.95,14.84-4.45L412.019,196.75
			z"/>
		<polygon style="opacity:0.2;fill:#1E3639;" points="412.369,234.24 395.029,236.23 395.299,228.83 412.309,227.28 		"/>
		<polygon style="opacity:0.2;fill:#1E3639;" points="412.549,252.71 394.359,254.68 394.659,246.39 412.479,245.56 		"/>
		<polygon style="opacity:0.2;fill:#1E3639;" points="197.989,167.97 174.439,164.92 174.779,155.69 197.889,157.19 		"/>
		<polygon style="opacity:0.2;fill:#1E3639;" points="270.159,171.83 256.729,172.77 256.409,161 269.429,161.84 		"/>
		<polygon style="opacity:0.2;fill:#1E3639;" points="267.839,139.9 255.889,142.21 255.649,133.16 267.219,131.45 		"/>
		<polygon style="opacity:0.2;fill:#1E3639;" points="271.809,194.62 257.489,200.5 257.329,194.91 271.039,184 		"/>
		<polygon style="opacity:0.2;fill:#1E3639;" points="263.519,80.44 254.239,81.72 254.019,73.54 262.959,72.85 		"/>
		<polygon style="opacity:0.2;fill:#1E3639;" points="198.659,239.22 171.869,235.97 172.249,225.53 198.559,229.26 		"/>
		<polygon style="opacity:0.2;fill:#1E3639;" points="275.729,248.58 258.739,246.51 258.499,237.75 275.119,240.1 		"/>
		<polygon style="opacity:0.2;fill:#1E3639;" points="196.929,55.07 178.379,56.11 178.769,45.45 196.829,44.29 		"/>
		<polyline style="fill:#728E76;" points="258.769,146.644 215.714,132.347 215.714,137.74 258.499,155.69 		"/>
		<polyline style="fill:#728E76;" points="261.744,109.88 287.834,86.504 290.295,88.866 264.569,120.81 		"/>
		<polyline style="fill:#728E76;" points="404.259,91.237 436.632,42.869 441.742,43.287 407.388,99.652 		"/>
		<polyline style="fill:#728E76;" points="601.669,131.45 576.297,118.358 572.318,121.533 600.16,147.07 		"/>
		<polyline style="fill:#728E76;" points="633.098,93.379 676.428,50.581 679.776,51.612 639.244,118.409 		"/>
		<polyline style="fill:#728E76;" points="658.089,198.279 677.745,184.114 683.707,190.883 661.88,210.968 		"/>
		<polyline style="fill:#728E76;" points="407.388,210.968 439.917,189.18 442.829,193.883 408.74,220.21 		"/>
		<path style="opacity:0.2;fill:#1E3639;" d="M66.077,325.047c0,0,132.482-43.145,211.736,24.335
			c79.254,67.481-225.748,34.835-225.748,34.835"/>
		<path style="fill:#1E3639;" d="M84.866,343.196c0,0,55.326-46.022,88.931,5.268c33.606,51.29-84.037,14.796-84.037,14.796"/>
		<polygon style="fill:#405F4D;" points="139.079,371.313 108.669,364.873 110.769,256.79 111.349,240.85 114.509,153.67 
			115.079,137.74 116.989,85.15 117.409,73.54 118.329,48.11 118.509,43.12 120.069,0 125.729,0 127.469,41.94 127.879,51.77 
			128.699,71.58 129.239,84.43 131.449,137.74 132.069,152.48 135.609,237.83 136.399,256.79 		"/>
		<polygon style="opacity:0.2;fill:#1E3639;" points="129.239,84.43 116.989,85.15 117.409,73.54 128.699,71.58 		"/>
		<polygon style="opacity:0.2;fill:#1E3639;" points="127.879,51.77 118.329,48.11 118.509,43.12 127.469,41.94 		"/>
		<polygon style="opacity:0.2;fill:#1E3639;" points="132.069,152.48 114.509,153.67 115.079,137.74 131.449,137.74 		"/>
		<polygon style="opacity:0.2;fill:#1E3639;" points="136.399,256.79 110.769,256.79 111.349,240.85 135.609,237.83 		"/>
		<polyline style="fill:#405F4D;" points="123.874,115.57 139.083,94.964 142.44,94.964 127.879,124.77 		"/>
		<polyline style="fill:#405F4D;" points="123.874,31.952 153.058,8.793 160.351,8.793 127.278,37.332 		"/>
	</g>
	<g>
		<path style="fill:#1E3639;" d="M347.946,346.842l-100.48,3.622c0,0-7.363-15.461,5.197-16.471
			c-7.363-10.972,3.898-17.418,10.827-12.679c1.732-17.349,20.356-23.954,24.687-13.722c9.095-10.124,16.458,4.602,16.458,4.602
			s5.197-29.884,54.571-19.49c7.363-22.521,57.603-9.637,51.972,14.888c15.159-4.06,16.913,16.296,16.913,16.296
			s45.454-15.657,43.721,23.355"/>
		<path style="fill:#405F4D;" d="M586.565,345.556c0,0-14.126-28.276,14.88-29.931c-5.462-23.834,15.894-31.472,27.784-29.669
			c-2.061-25.752,36.436-68.007,83.662-44.527c16.861,3.318,16.04,101.768,16.04,101.768"/>
		<path style="opacity:0.2;fill:#1E3639;" d="M651.624,347.699c0,0,1.774-96.594,95.547-77.95
			c-13.97,80.496-18.234,98.151-18.234,98.151"/>
		<polygon style="fill:#4E6B5A;" points="0,500 0,347.699 749.999,333.286 749.999,500 		"/>
		<path style="opacity:0.2;fill:#1E3639;" d="M55.059,396.384c0,0,207.683-14.31,554.691,66.993
			c-89.152,0-137.646,36.622-137.646,36.622H29.342L55.059,396.384z"/>
		
			<ellipse transform="matrix(0.0508 -0.9987 0.9987 0.0508 -168.3549 688.9776)" style="opacity:0.2;fill:#1E3639;" cx="278.294" cy="433.06" rx="12.459" ry="43.904"/>
		<path style="opacity:0.2;fill:#1E3639;" d="M333.423,466.235c-0.09,1.759-5.188,2.93-11.387,2.614
			c-6.2-0.316-11.153-1.998-11.063-3.757c0.09-1.759,5.188-2.93,11.387-2.614C328.56,462.794,333.513,464.476,333.423,466.235z"/>
		<path style="opacity:0.2;fill:#1E3639;" d="M277.808,386.29c-0.14,2.746-8.097,4.573-17.773,4.08
			c-9.676-0.493-17.407-3.118-17.267-5.864c0.14-2.746,8.097-4.573,17.773-4.08C270.217,380.919,277.947,383.544,277.808,386.29z"/>
		<path style="opacity:0.2;fill:#1E3639;" d="M519.803,352.654c0.067,4.9-18.955,9.132-42.485,9.452
			c-23.531,0.32-42.66-3.394-42.726-8.294c-0.067-4.9,18.955-9.132,42.485-9.452C500.608,344.04,519.737,347.753,519.803,352.654z"
			/>
		<path style="opacity:0.2;fill:#1E3639;" d="M189.768,368.198c-0.047,6.477-18.588,11.595-41.413,11.43
			c-22.825-0.165-41.29-5.549-41.243-12.027c0.047-6.477,18.588-11.595,41.413-11.43
			C171.35,356.337,189.815,361.721,189.768,368.198z"/>
		<path style="opacity:0.2;fill:#1E3639;" d="M158.007,415.53c-0.09,1.759-5.188,2.93-11.387,2.614
			c-6.2-0.316-11.153-1.998-11.063-3.757c0.09-1.759,5.188-2.93,11.387-2.614C153.144,412.089,158.097,413.771,158.007,415.53z"/>
		
			<ellipse transform="matrix(0.0508 -0.9987 0.9987 0.0508 -272.2397 645.8807)" style="opacity:0.2;fill:#1E3639;" cx="203.678" cy="466.165" rx="24.397" ry="72.837"/>
		<polygon style="fill:#314440;" points="749.999,500 721.608,500 695.8,0 750,0 		"/>
		<polygon style="opacity:0.2;fill:#1E3639;" points="722.766,0 749.999,426.755 750,0 		"/>
		<path style="fill:#314440;" d="M407.389,383.91c0,0-2.53,3.51-8.49,6.93c-8.82,5.04-25.13,9.88-51.9,2.94
			c-3.97-1.04-8.18-2.33-12.62-3.92L322.199,0h49.67L407.389,383.91z"/>
		<path style="opacity:0.2;fill:#1E3639;" d="M398.899,390.84c-8.82,5.04-25.13,9.88-51.9,2.94L337.806,0h29.068L398.899,390.84z"/>
		<polygon style="fill:#314440;" points="659.469,0 669.233,0 722.9,88.754 717.302,104.002 		"/>
		<polyline style="fill:#314440;" points="685.009,36.855 669.233,39.174 672.248,43.287 691.184,48.884 		"/>
		<polyline style="fill:#314440;" points="716.737,171.984 665.407,104.002 659.469,108.4 716.737,222.722 		"/>
		<path style="fill:#9FC9A2;" d="M402.679,403.83c0,0-45.25,13.46-91.14-6.6c0,0,1.9-7.5,5.97-16.31
			c5.87-12.68,16.24-28.08,31.94-27.68c7.47,0.19,14.95,4.26,21.84,10.02C388.909,378.02,402.679,403.83,402.679,403.83z"/>
		<path style="fill:#9FC9A2;" d="M311.539,374.891c0,0-10.231,5.85-27.268-0.847C292.252,355.234,307.197,361.888,311.539,374.891z"
			/>
		<path style="fill:#9FC9A2;" d="M416.252,384.383c0,0,21.102,4.067,32.28-4.188C444.275,359.44,417.108,357.455,416.252,384.383z"
			/>
		<path style="opacity:0.2;fill:#1E3639;" d="M402.679,403.83c0,0-45.25,13.46-91.14-6.6c0,0,1.9-7.5,5.97-16.31
			c13.78,0.38,39.52-1.35,53.78-17.66C388.909,378.02,402.679,403.83,402.679,403.83z"/>
		<path style="fill:#314440;" d="M330.773,86.504c0,0-31.938-9.853-35.32-38.785c-6.763,0-6.763,0-6.763,0
			s3.382,51.101,43.962,55.986"/>
		<polyline style="fill:#314440;" points="375,81.16 445.751,0 439.363,0 371.729,63.5 		"/>
		<polyline style="fill:#314440;" points="383.018,158.563 441.618,118.358 445.751,122.492 384.88,184.114 		"/>
		<path style="fill:#1E3639;" d="M137.918,0c0,0,13.1,29.998,56.781,18.032c27.719,29.934,82.549,20.195,99.529,1.082
			c11.489,12.739,34.54,19.152,50.767-2.445c21.353,43.119,91.682,47.697,105.214,23.911c31.727,35.132,92.639,8.224,91.046-40.58"
			/>
		<path style="opacity:0.2;fill:#1E3639;" d="M366.875,0h169.988C536.863,0,491.074,71.725,366.875,0z"/>
		<path style="fill:#1E3639;" d="M269.568,47.3c-0.12,18.807,46.463,14.225,46.475,0.409
			C316.064,24.841,269.688,28.493,269.568,47.3z"/>
		<path style="fill:#1E3639;" d="M421.548,108.665c-7.164,27.45,39.302,43.742,50.314,10.507
			C480.248,93.859,433.23,63.902,421.548,108.665z"/>
		<path style="fill:#1E3639;" d="M631.221,114.023c13.715,13.515,89.115,11.174,83.471-8.759
			C708.731,84.211,606.62,89.781,631.221,114.023z"/>
		<path style="fill:#9FC9A2;" d="M225.455,364.398c0,0,1.031-8.142,8.934-8.582s8.285,8.582,8.285,8.582
			S233.721,367.255,225.455,364.398z"/>
		<path style="fill:#9FC9A2;" d="M258.499,429.647c0,0-0.475-15.714,21.827-15.926c22.303-0.211,23.184,19.34,23.184,19.34
			S276.906,437.856,258.499,429.647z"/>
		<path style="fill:#9FC9A2;" d="M364.666,431.709c0,0,5.907-10.792,14.176-1.021C375.097,434.485,364.666,431.709,364.666,431.709z
			"/>
	</g>
	<g>
		<path style="fill:#252A26;" d="M132.319,434.575c-6.263,0.307-12.854-0.34-12.61-4.47c0.272-4.608,7.529-6.054,13.431-6.466
			c0.117-5.26-0.123-10.902-0.785-16.97c-12.198,2.034-22.564,4.953-31.376,8.496l-1.617,14.729l-7.015-10.818
			c-51.032,25.965-38.631,75.211-38.631,75.211s54.144,3.769,73.042-39.186l-7.229-4.758l9.235-0.386
			C130.361,445.327,131.574,440.215,132.319,434.575z"/>
		<path style="fill:#1C1D1D;" d="M0,500h242.675c0,0-130.079-57.252-213.339-41.65"/>
		<path style="fill:#061619;" d="M70.886,465.664c0,0,38.966,1.479,37.787,34.336c-53.235,0-56.283,0-56.283,0"/>
		<polygon style="fill:#061619;" points="101.946,0 0,0 0,500 73.496,500 		"/>
		<polygon style="fill:#252A26;" points="0,418.988 0,314.866 34.495,242.017 		"/>
		<polygon style="fill:#061619;" points="208.452,0 234.39,0 200.636,500 134.209,500 		"/>
		<polygon style="fill:#252A26;" points="225.455,132.347 200.636,500 181.9,500 		"/>
		<polygon style="fill:#252A26;" points="98.55,59.681 73.496,500 22.106,500 		"/>
		<polyline style="fill:#252A26;" points="77.016,262.226 151.268,175.832 144.44,171.872 77.107,223.473 		"/>
		<path style="fill:#252A26;" d="M70.886,445.52c0.398-2.081,5.118-53.138,35.043-64.478
			c-16.708,25.728-29.172,61.639-29.172,61.639"/>
		
			<ellipse transform="matrix(0.1037 -0.9946 0.9946 0.1037 -39.298 123.0157)" style="fill:#252A26;" cx="48.606" cy="83.312" rx="39.936" ry="22.091"/>
		<path style="fill:#252A26;" d="M29.861,146.057c-0.807,7.743-4.934,13.658-9.217,13.211s-7.101-7.086-6.293-14.829
			c0.807-7.743,4.934-13.658,9.217-13.211C27.851,131.675,30.668,138.314,29.861,146.057z"/>
		<path style="fill:#061619;" d="M203.678,114.985c0,0-40.224-7.098-33.963-73.651c-8.151,0-8.151,0-8.151,0
			s-12.249,74.279,41.117,90.341"/>
		<path style="fill:#061619;" d="M87.841,31.853c0,0,58.208,42.114,87.461,10.087c14.328,4.915,10.448-8.475,10.448-8.475
			S221.271,27.131,220.973,0C203.063,0,92.319,0,92.319,0L87.841,31.853z"/>
		<polyline style="fill:#061619;" points="222.025,58.611 272.305,0.373 281.022,0.373 223.329,76.41 		"/>
		<polyline style="fill:#061619;" points="180.513,253.459 153.058,242.591 148.44,248.512 180.513,270.993 		"/>
	</g>
	<g>
		<g>
			<g>
				<path style="fill:#252A26;" d="M455.701,393.139c1.223,6.15,1.55,12.764-2.571,13.129c-4.598,0.408-7.094-6.559-8.367-12.337
					c-5.22,0.657-10.766,1.722-16.671,3.267c3.802,11.767,8.211,21.593,13.009,29.79l14.807-0.562l-9.671,8.527
					c33.174,46.668,80.066,27.174,80.066,27.174s-4.218-54.11-49.482-66.5l-3.646,7.849l-1.737-9.079
					C466.625,393.497,461.39,393.049,455.701,393.139z M492.272,418.812c-5.014,5.618-14.958-3.386-12.614-7.927
					C482.002,406.344,497.286,413.195,492.272,418.812z"/>
				<path style="fill:#252A26;" d="M490.519,455.223c0,0-30.285-52.118-21.695-105.381c24.627,43.527,27.759,105.381,27.759,105.381
					"/>
				<path style="fill:#252A26;" d="M601.702,356.077c-5.939,2.011-12.455,3.195-13.352-0.843c-1.001-4.506,5.581-7.885,11.145-9.899
					c-1.329-5.091-3.106-10.451-5.405-16.105c-11.173,5.299-20.343,10.946-27.847,16.769l2.482,14.609l-9.711-8.481
					c-41.963,38.956-16.542,82.918-16.542,82.918s53.104-11.213,59.508-57.702l-8.256-2.595l8.776-2.902
					C602.766,366.954,602.53,361.706,601.702,356.077z M580.997,395.673c-6.222-4.242,1.414-15.271,6.221-13.536
					C592.026,383.871,587.218,399.915,580.997,395.673z"/>
				<path style="fill:#252A26;" d="M569.528,433.213c0,0,23.546-59.761,69.926-65.419c-42.356,27.013-55.693,64.244-55.693,64.244
					s26.768-42.316,48.464-46.87c-12.76,29.861-42.42,48.242-42.42,48.242"/>
				<path style="fill:#252A26;" d="M477.198,449.675c0,0-42.339-18.179-72.075,21.504c42.536-21.504,68.875-11.66,68.875-11.66"/>
				<path style="fill:#252A26;" d="M669.233,420.471c0,0,27.206-50.158,35.075-48.804c7.869,1.354-8.508,37.739-8.508,37.739
					s19.064-24.123,27.1-20.237c8.036,3.886-24.965,46.858-24.965,46.858"/>
				<path style="fill:#252A26;" d="M653.357,425.733c0,0-7.869-56.605,4.047-110.108c7.925,0,7.925,0,7.925,0
					s-1.738,90.322,12.416,131.419"/>
				<path style="fill:#252A26;" d="M622.048,323.916c1.178,8.645,73.412,6.651,79.62-5.321c2.293-4.423-26.934-31.259-38.518-32.589
					C651.565,284.676,620.144,309.949,622.048,323.916z"/>
				<path style="fill:#252A26;" d="M641.791,359.609c0,7.346,68.006,7.981,69.834,0c1.827-7.981-30.873-17.425-33.503-18.023
					C675.491,340.987,641.791,351.628,641.791,359.609z"/>
				<path style="fill:#252A26;" d="M636.356,386.04c0,4.882,44.725,5.304,45.927,0c1.202-5.305-20.304-11.581-22.034-11.979
					C658.519,373.663,636.356,380.735,636.356,386.04z"/>
			</g>
			<path style="fill:#1C1D1D;" d="M416.252,500c0,0,59.563-73.935,155.335-90.895s178.412,39.905,178.412,39.905V500H416.252z"/>
			<path style="fill:#061619;" d="M533.079,429.647c0,0,126.974-18.155,216.921,36.519L749.999,500H520.598L533.079,429.647z"/>
			<path style="fill:#314440;" d="M622.049,500c-75.67,0-92.31,0-92.31,0l1.32-11.57l3.78-33.21c0,0,41.42-8.47,67.23,8.41
				C612.739,470.62,620.749,481.94,622.049,500z"/>
			<path style="opacity:0.2;fill:#1E3639;" d="M622.049,500c-75.67,0-92.31,0-92.31,0l1.32-11.57c2.19,0.2,4.58,0.6,7.15,1.22
				c27.2,6.53,51.95-13.86,63.86-26.02C612.739,470.62,620.749,481.94,622.049,500z"/>
		</g>
		<g>
			<polygon style="fill:#252A26;" points="479.907,500 509.275,0 560.208,0 542.814,500 			"/>
			<polygon style="fill:#061619;" points="560.208,0 542.814,500 499.275,500 521.461,0 			"/>
		</g>
		<path style="fill:#061619;" d="M545.611,74.213l25.31-30.927l5.377,1.997c0,0-12.633,50.859-32.042,54.368"/>
		<path style="fill:#061619;" d="M544.255,227.065c0,0,44.501,1.223,58.348-34.819c8.736,0,8.736,0,8.736,0
			s-8.736,59.266-70.084,57.792"/>
		<polyline style="fill:#061619;" points="520.598,167.745 486.29,141.768 481.936,147.516 520.057,199.22 		"/>
		<path style="fill:#2C2324;" d="M677.582,355.326c0,0-1.588,19.554-13.728,20.497c-12.14,0.943,5.078,4.439,5.078,4.439
			s14.84-0.378,14.774-21.512"/>
	</g>
</g>
</svg>
